# xmcd
#
# Track frame offsets:
# 150
# 11090
# 21970
# 36373
# 55522
# 71792
# 83742
# 103059
# 122382
# 140964
# 157622
# 174594
# 190992
# 208440
# 224659
# 242269
# 258989
# 274074
# 292484
# 305657
#
# Disc length: 4354 seconds
#
# Revision: 0
# Processed by: cddbd v1.5.2PL0 Copyright (c) Steve Scherf et al.
# Submitted via: Audion 3.0.2 (http://www.panic.com/audion/)
#
DISCID=33110014
DTITLE=20 ans - 20 titres - Françoise Hardy
DYEAR=1900
DGENRE=
TTITLE0=des rons dans l'eau
TTITLE1=comment te dire adieux ?
TTITLE2=où va la chance ?
TTITLE3=jamais synchrone
TTITLE4=if you listen
TTITLE5=prisons
TTITLE6=message personnel
TTITLE7=musique saoule
TTITLE8=que tu m'enterres
TTITLE9=tirez pas sur l'ambulance
TTITLE10=moi vouloir toi
TTITLE11=v.i.p
TTITLE12=partir quand même
TTITLE13=laisse-moi rêver
TTITLE14=la sieste
TTITLE15=il voyage
TTITLE16=je ne suis là pour personne
TTITLE17=les petits garçons
TTITLE18=fais-moi une place
TTITLE19=en résumé... en conclusion
EXTD=
EXTT0=
EXTT1=
EXTT2=
EXTT3=
EXTT4=
EXTT5=
EXTT6=
EXTT7=
EXTT8=
EXTT9=
EXTT10=
EXTT11=
EXTT12=
EXTT13=
EXTT14=
EXTT15=
EXTT16=
EXTT17=
EXTT18=
EXTT19=
PLAYORDER=
